<svg version="1.1" id="Layer_1" xmlns="http://www.w3.org/2000/svg" xmlns:xlink="http://www.w3.org/1999/xlink" x="0px" y="0px"
	 viewBox="0 0 370.5 84.3" style="enable-background:new 0 0 370.5 84.3;" xml:space="preserve">
<style type="text/css">
	.st0{fill:#FFFFFF;}
</style>
<path class="st0" d="M72.5,73.9H60.3V56.8c0-18.1-27.5-35.7-45.7-16C19,34,28.9,26.6,40.8,26.6c18.7,0,31.1,15.5,31.7,30.4V73.9z
	 M72.5,45.2c-3.2-7.3-6.8-11-12.2-15.1V10.3h12.2V45.2z M21.6,30.2c-5.3,4.1-9,7.8-12.2,15.1V10.3h12.2V30.2z M9.4,57
	c1.6-22.6,27.3-28.1,39.9-15.9C36.8,35,21.6,44.3,21.6,58.4v15.7H9.4V57z M81.9,1.2H0v81.9h81.9V1.2z"/>
<path class="st0" d="M340.1,83.1V31.9h0.2l17.9,51.2h12.3v-82h-12.7V48h-0.2L340.5,1.1h-13.1v82H340.1z M282,65h15.4l2.5,18.2h13.6
	l-15.1-82H281l-15.1,82h13.6L282,65z M289.6,17.5h0.2l5.6,35.2H284L289.6,17.5z M230.5,52.7h9v7.9c0,8.2-2,11.4-7.7,11.4
	c-4.9,0-6.6-3.4-6.6-8.6V21.2c0-6.9,2.8-9,6.2-9c5.6,0,8.1,3.2,8.1,15.4h13.4v-5.2c0-12.3-7-22.5-21.1-22.5
	c-13.9,0-20.7,9.4-20.7,21v42.2c0,13.1,7.7,21,18.9,21c6.6,0,10-2.3,14.2-7.3l2.6,6.1h6.8V41.6h-23.1V52.7z M169.6,21.3
	c0-6.1,1.8-9.1,7.5-9.1c5.7,0,7.5,3,7.5,9.1v41.6c0,6.1-1.8,9.1-7.5,9.1c-5.7,0-7.5-3-7.5-9.1V21.3z M155.5,63.2
	c0,11.6,6.8,21,21.6,21c14.8,0,21.6-9.4,21.6-21V21c0-11.6-6.8-21-21.6-21c-14.8,0-21.6,9.4-21.6,21V63.2z M111.6,83.1V46.8h15v36.3
	h14.1v-82h-14.1v33.4h-15V1.1H97.6v82H111.6z"/>
</svg>
